<?xml version="1.0" encoding="UTF-8"?>
<!DOCTYPE svg PUBLIC "-//W3C//DTD SVG 1.1//EN" "http://www.w3.org/Graphics/SVG/1.1/DTD/svg11.dtd">
<svg xmlns="http://www.w3.org/2000/svg" version="1.1" width="64px" height="64px" style="shape-rendering:geometricPrecision; text-rendering:geometricPrecision; image-rendering:optimizeQuality; fill-rule:evenodd; clip-rule:evenodd" xmlns:xlink="http://www.w3.org/1999/xlink">
<g><path style="opacity:0.967" fill="#0a0a0b" d="M 5.5,-0.5 C 14.5,-0.5 23.5,-0.5 32.5,-0.5C 37.7351,1.44998 43.4018,2.11665 49.5,1.5C 49.5,3.5 49.5,5.5 49.5,7.5C 46.4281,7.18259 43.4281,7.51592 40.5,8.5C 46.4632,9.49592 52.4632,9.82925 58.5,9.5C 59.349,13.4376 60.0156,17.4376 60.5,21.5C 58.7778,35.1115 58.1111,48.7782 58.5,62.5C 57.209,62.2627 56.209,62.596 55.5,63.5C 54.1667,63.5 52.8333,63.5 51.5,63.5C 38.1667,62.1667 24.8333,62.1667 11.5,63.5C 10.1667,63.5 8.83333,63.5 7.5,63.5C 6.79105,62.596 5.79105,62.2627 4.5,62.5C 4.88888,48.7782 4.22221,35.1115 2.5,21.5C 3.60145,14.1257 4.60145,6.79232 5.5,-0.5 Z"/></g>
<g><path style="opacity:1" fill="#ebe9eb" d="M 7.5,1.5 C 15.1667,1.5 22.8333,1.5 30.5,1.5C 30.5,5.16667 30.5,8.83333 30.5,12.5C 22.6917,14.157 14.6917,14.8236 6.5,14.5C 6.23071,10.0685 6.56404,5.7352 7.5,1.5 Z"/></g>
<g><path style="opacity:1" fill="#6e6470" d="M 32.5,3.5 C 37.544,3.17252 42.544,3.50585 47.5,4.5C 44.8929,5.31844 42.2263,5.81844 39.5,6C 38.6634,7.01127 38.33,8.17793 38.5,9.5C 36.5,9.5 34.5,9.5 32.5,9.5C 32.5,7.5 32.5,5.5 32.5,3.5 Z"/></g>
<g><path style="opacity:1" fill="#5b515e" d="M 55.5,16.5 C 54.609,15.8902 53.609,15.5569 52.5,15.5C 45.8006,14.8806 39.1339,13.7139 32.5,12C 40.4931,11.5003 48.4931,11.3336 56.5,11.5C 56.3713,13.2161 56.038,14.8828 55.5,16.5 Z"/></g>
<g><path style="opacity:1" fill="#bad8ff" d="M 24.5,14.5 C 29.1667,14.5 33.8333,14.5 38.5,14.5C 38.5,17.1667 38.5,19.8333 38.5,22.5C 33.8333,22.5 29.1667,22.5 24.5,22.5C 24.5,19.8333 24.5,17.1667 24.5,14.5 Z"/></g>
<g><path style="opacity:1" fill="#78727a" d="M 52.5,15.5 C 53.609,15.5569 54.609,15.8902 55.5,16.5C 56.5,16.5 57.5,16.5 58.5,16.5C 58.5,19.8333 58.5,23.1667 58.5,26.5C 40.5,26.5 22.5,26.5 4.5,26.5C 4.5,23.1667 4.5,19.8333 4.5,16.5C 10.5,16.5 16.5,16.5 22.5,16.5C 21.0699,23.8942 24.0699,26.5609 31.5,24.5C 38.9301,26.5609 41.9301,23.8942 40.5,16.5C 44.7016,16.8168 48.7016,16.4834 52.5,15.5 Z"/></g>
<g><path style="opacity:1" fill="#4a3f4d" d="M 16.5,28.5 C 26.5222,28.1681 36.5222,28.5015 46.5,29.5C 41.5,29.8333 36.5,30.1667 31.5,30.5C 26.1194,30.4942 21.1194,29.8275 16.5,28.5 Z"/></g>
<g><path style="opacity:1" fill="#6b616d" d="M 6.5,28.5 C 7.83333,28.5 9.16667,28.5 10.5,28.5C 10.5,31.1667 10.5,33.8333 10.5,36.5C 9.16667,36.5 7.83333,36.5 6.5,36.5C 6.5,33.8333 6.5,31.1667 6.5,28.5 Z"/></g>
<g><path style="opacity:1" fill="#594e5c" d="M 12.5,28.5 C 13.7479,29.3339 14.4146,30.6672 14.5,32.5C 14.1667,33.8333 13.8333,35.1667 13.5,36.5C 12.52,33.9135 12.1866,31.2469 12.5,28.5 Z"/></g>
<g><path style="opacity:1" fill="#594e5c" d="M 48.5,28.5 C 49.7479,29.3339 50.4146,30.6672 50.5,32.5C 50.1667,33.8333 49.8333,35.1667 49.5,36.5C 48.52,33.9135 48.1866,31.2469 48.5,28.5 Z"/></g>
<g><path style="opacity:1" fill="#6b616d" d="M 52.5,28.5 C 53.8333,28.5 55.1667,28.5 56.5,28.5C 56.5,31.1667 56.5,33.8333 56.5,36.5C 55.1667,36.5 53.8333,36.5 52.5,36.5C 52.5,33.8333 52.5,31.1667 52.5,28.5 Z"/></g>
<g><path style="opacity:1" fill="#5c535f" d="M 16.5,32.5 C 18.4918,32.3285 20.1585,32.9951 21.5,34.5C 24.8333,31.8333 28.1667,31.8333 31.5,34.5C 34.8333,31.8333 38.1667,31.8333 41.5,34.5C 42.8415,32.9951 44.5082,32.3285 46.5,32.5C 46.5,33.8333 46.5,35.1667 46.5,36.5C 36.5,36.5 26.5,36.5 16.5,36.5C 16.5,35.1667 16.5,33.8333 16.5,32.5 Z"/></g>
<g><path style="opacity:1" fill="#eae8ea" d="M 6.5,38.5 C 23.1667,38.5 39.8333,38.5 56.5,38.5C 56.5,43.1667 56.5,47.8333 56.5,52.5C -3.5,53.1667 -3.5,53.8333 56.5,54.5C 56.5,56.5 56.5,58.5 56.5,60.5C 51.4615,61.3094 47.1282,60.1427 43.5,57C 35.1467,56.1683 26.8134,56.3349 18.5,57.5C 18.1667,58.1667 17.8333,58.8333 17.5,59.5C 13.8927,60.4892 10.226,60.8226 6.5,60.5C 6.5,58.5 6.5,56.5 6.5,54.5C 10.5,53.8333 10.5,53.1667 6.5,52.5C 6.5,47.8333 6.5,43.1667 6.5,38.5 Z"/></g>
<g><path style="opacity:1" fill="#99939b" d="M 19.5,58.5 C 27.5277,58.169 35.5277,58.5023 43.5,59.5C 39.5,59.8333 35.5,60.1667 31.5,60.5C 27.107,60.4907 23.107,59.824 19.5,58.5 Z"/></g>
</svg>
